<mxfile host="Electron" modified="2023-11-27T07:13:53.828Z" agent="Mozilla/5.0 (Windows NT 10.0; Win64; x64) AppleWebKit/537.36 (KHTML, like Gecko) draw.io/22.1.2 Chrome/114.0.5735.289 Electron/25.9.4 Safari/537.36" etag="wN8OT9C0loIZaEKnLboU" version="22.1.2" type="device">
  <diagram name="ERD" id="jihYKogvl9RWCvbxsXh_">
    <mxGraphModel dx="2069" dy="1869" grid="1" gridSize="10" guides="1" tooltips="1" connect="1" arrows="1" fold="1" page="1" pageScale="1" pageWidth="850" pageHeight="1100" math="0" shadow="0">
      <root>
        <mxCell id="0" />
        <mxCell id="1" parent="0" />
        <mxCell id="iCIqvXKnUE5XaOJZBTWL-1" value="musicana&amp;nbsp;" style="rounded=0;whiteSpace=wrap;html=1;" parent="1" vertex="1">
          <mxGeometry x="360" y="170" width="120" height="60" as="geometry" />
        </mxCell>
        <mxCell id="iCIqvXKnUE5XaOJZBTWL-3" value="" style="endArrow=none;html=1;rounded=0;entryX=0.5;entryY=0;entryDx=0;entryDy=0;" parent="1" target="iCIqvXKnUE5XaOJZBTWL-1" edge="1">
          <mxGeometry width="50" height="50" relative="1" as="geometry">
            <mxPoint x="430" y="130" as="sourcePoint" />
            <mxPoint x="450" y="320" as="targetPoint" />
          </mxGeometry>
        </mxCell>
        <mxCell id="iCIqvXKnUE5XaOJZBTWL-4" value="Address" style="ellipse;whiteSpace=wrap;html=1;" parent="1" vertex="1">
          <mxGeometry x="390" y="93" width="111" height="37" as="geometry" />
        </mxCell>
        <mxCell id="iCIqvXKnUE5XaOJZBTWL-5" value="" style="endArrow=none;html=1;rounded=0;exitX=0;exitY=0;exitDx=0;exitDy=0;" parent="1" source="iCIqvXKnUE5XaOJZBTWL-6" edge="1">
          <mxGeometry width="50" height="50" relative="1" as="geometry">
            <mxPoint x="400" y="370" as="sourcePoint" />
            <mxPoint x="300" y="140" as="targetPoint" />
          </mxGeometry>
        </mxCell>
        <mxCell id="iCIqvXKnUE5XaOJZBTWL-7" value="" style="endArrow=none;html=1;rounded=0;exitX=0;exitY=0;exitDx=0;exitDy=0;" parent="1" source="iCIqvXKnUE5XaOJZBTWL-1" target="iCIqvXKnUE5XaOJZBTWL-6" edge="1">
          <mxGeometry width="50" height="50" relative="1" as="geometry">
            <mxPoint x="360" y="170" as="sourcePoint" />
            <mxPoint x="300" y="140" as="targetPoint" />
          </mxGeometry>
        </mxCell>
        <mxCell id="iCIqvXKnUE5XaOJZBTWL-6" value="ID&amp;nbsp; num" style="ellipse;whiteSpace=wrap;html=1;rotation=-45;" parent="1" vertex="1">
          <mxGeometry x="243.54" y="130" width="100" height="30" as="geometry" />
        </mxCell>
        <mxCell id="iCIqvXKnUE5XaOJZBTWL-8" value="" style="endArrow=none;html=1;rounded=0;exitX=0.25;exitY=0;exitDx=0;exitDy=0;" parent="1" source="iCIqvXKnUE5XaOJZBTWL-1" target="iCIqvXKnUE5XaOJZBTWL-9" edge="1">
          <mxGeometry width="50" height="50" relative="1" as="geometry">
            <mxPoint x="400" y="370" as="sourcePoint" />
            <mxPoint x="350" y="70" as="targetPoint" />
          </mxGeometry>
        </mxCell>
        <mxCell id="iCIqvXKnUE5XaOJZBTWL-9" value="Name" style="ellipse;whiteSpace=wrap;html=1;rotation=-30;" parent="1" vertex="1">
          <mxGeometry x="290" y="30" width="120" height="40" as="geometry" />
        </mxCell>
        <mxCell id="iCIqvXKnUE5XaOJZBTWL-11" value="" style="endArrow=none;html=1;rounded=0;exitX=1;exitY=0;exitDx=0;exitDy=0;" parent="1" source="iCIqvXKnUE5XaOJZBTWL-4" edge="1">
          <mxGeometry width="50" height="50" relative="1" as="geometry">
            <mxPoint x="400" y="370" as="sourcePoint" />
            <mxPoint x="560" y="70" as="targetPoint" />
          </mxGeometry>
        </mxCell>
        <mxCell id="iCIqvXKnUE5XaOJZBTWL-13" value="Street" style="ellipse;whiteSpace=wrap;html=1;rotation=60;" parent="1" vertex="1">
          <mxGeometry x="540" y="40" width="90" height="47" as="geometry" />
        </mxCell>
        <mxCell id="iCIqvXKnUE5XaOJZBTWL-16" value="Instrument" style="rounded=0;whiteSpace=wrap;html=1;" parent="1" vertex="1">
          <mxGeometry x="640" y="310" width="120" height="50" as="geometry" />
        </mxCell>
        <mxCell id="iCIqvXKnUE5XaOJZBTWL-23" value="" style="endArrow=none;html=1;rounded=0;entryX=0.5;entryY=0;entryDx=0;entryDy=0;exitX=0.5;exitY=1;exitDx=0;exitDy=0;" parent="1" source="iCIqvXKnUE5XaOJZBTWL-26" target="iCIqvXKnUE5XaOJZBTWL-16" edge="1">
          <mxGeometry width="50" height="50" relative="1" as="geometry">
            <mxPoint x="700" y="260" as="sourcePoint" />
            <mxPoint x="450" y="270" as="targetPoint" />
          </mxGeometry>
        </mxCell>
        <mxCell id="iCIqvXKnUE5XaOJZBTWL-26" value="Musical key" style="ellipse;whiteSpace=wrap;html=1;rotation=15;" parent="1" vertex="1">
          <mxGeometry x="670" y="210" width="120" height="40" as="geometry" />
        </mxCell>
        <mxCell id="iCIqvXKnUE5XaOJZBTWL-27" value="" style="endArrow=none;html=1;rounded=0;entryX=1;entryY=1;entryDx=0;entryDy=0;" parent="1" target="iCIqvXKnUE5XaOJZBTWL-16" edge="1">
          <mxGeometry width="50" height="50" relative="1" as="geometry">
            <mxPoint x="840" y="400" as="sourcePoint" />
            <mxPoint x="470" y="270" as="targetPoint" />
          </mxGeometry>
        </mxCell>
        <mxCell id="iCIqvXKnUE5XaOJZBTWL-28" value="Name" style="ellipse;whiteSpace=wrap;html=1;rotation=-45;" parent="1" vertex="1">
          <mxGeometry x="799.39" y="394.39" width="120" height="50" as="geometry" />
        </mxCell>
        <mxCell id="iCIqvXKnUE5XaOJZBTWL-29" value="Play" style="rhombus;whiteSpace=wrap;html=1;" parent="1" vertex="1">
          <mxGeometry x="520" y="220" width="80" height="80" as="geometry" />
        </mxCell>
        <mxCell id="iCIqvXKnUE5XaOJZBTWL-30" value="" style="endArrow=none;html=1;rounded=0;entryX=1;entryY=0.5;entryDx=0;entryDy=0;exitX=0.5;exitY=0;exitDx=0;exitDy=0;" parent="1" source="iCIqvXKnUE5XaOJZBTWL-29" target="iCIqvXKnUE5XaOJZBTWL-1" edge="1">
          <mxGeometry width="50" height="50" relative="1" as="geometry">
            <mxPoint x="420" y="320" as="sourcePoint" />
            <mxPoint x="470" y="270" as="targetPoint" />
          </mxGeometry>
        </mxCell>
        <mxCell id="iCIqvXKnUE5XaOJZBTWL-31" value="" style="endArrow=none;html=1;rounded=0;entryX=1;entryY=0.5;entryDx=0;entryDy=0;exitX=0;exitY=0;exitDx=0;exitDy=0;" parent="1" source="iCIqvXKnUE5XaOJZBTWL-16" target="iCIqvXKnUE5XaOJZBTWL-29" edge="1">
          <mxGeometry width="50" height="50" relative="1" as="geometry">
            <mxPoint x="420" y="320" as="sourcePoint" />
            <mxPoint x="470" y="270" as="targetPoint" />
          </mxGeometry>
        </mxCell>
        <mxCell id="iCIqvXKnUE5XaOJZBTWL-32" value="M" style="text;strokeColor=none;align=center;fillColor=none;html=1;verticalAlign=middle;whiteSpace=wrap;rounded=0;" parent="1" vertex="1">
          <mxGeometry x="620" y="280" width="60" height="30" as="geometry" />
        </mxCell>
        <mxCell id="iCIqvXKnUE5XaOJZBTWL-33" value="M" style="text;strokeColor=none;align=center;fillColor=none;html=1;verticalAlign=middle;whiteSpace=wrap;rounded=0;" parent="1" vertex="1">
          <mxGeometry x="460" y="180" width="60" height="30" as="geometry" />
        </mxCell>
        <mxCell id="iCIqvXKnUE5XaOJZBTWL-34" value="Record" style="rhombus;whiteSpace=wrap;html=1;" parent="1" vertex="1">
          <mxGeometry x="380" y="295" width="80" height="80" as="geometry" />
        </mxCell>
        <mxCell id="iCIqvXKnUE5XaOJZBTWL-35" value="" style="endArrow=none;html=1;rounded=0;entryX=0.5;entryY=1;entryDx=0;entryDy=0;exitX=0.5;exitY=0;exitDx=0;exitDy=0;" parent="1" target="iCIqvXKnUE5XaOJZBTWL-1" edge="1" source="iCIqvXKnUE5XaOJZBTWL-34">
          <mxGeometry width="50" height="50" relative="1" as="geometry">
            <mxPoint x="420" y="290" as="sourcePoint" />
            <mxPoint x="470" y="270" as="targetPoint" />
          </mxGeometry>
        </mxCell>
        <mxCell id="iCIqvXKnUE5XaOJZBTWL-36" value="" style="endArrow=none;html=1;rounded=0;exitX=0.5;exitY=1;exitDx=0;exitDy=0;shape=link;" parent="1" source="iCIqvXKnUE5XaOJZBTWL-34" edge="1">
          <mxGeometry width="50" height="50" relative="1" as="geometry">
            <mxPoint x="430" y="300" as="sourcePoint" />
            <mxPoint x="420" y="440" as="targetPoint" />
          </mxGeometry>
        </mxCell>
        <mxCell id="iCIqvXKnUE5XaOJZBTWL-37" value="Album" style="rounded=0;whiteSpace=wrap;html=1;" parent="1" vertex="1">
          <mxGeometry x="360" y="440" width="120" height="50" as="geometry" />
        </mxCell>
        <mxCell id="iCIqvXKnUE5XaOJZBTWL-41" value="" style="endArrow=none;html=1;rounded=0;entryX=1;entryY=1;entryDx=0;entryDy=0;" parent="1" edge="1">
          <mxGeometry width="50" height="50" relative="1" as="geometry">
            <mxPoint x="550.61" y="530" as="sourcePoint" />
            <mxPoint x="470.61" y="490" as="targetPoint" />
          </mxGeometry>
        </mxCell>
        <mxCell id="iCIqvXKnUE5XaOJZBTWL-42" value="Title" style="ellipse;whiteSpace=wrap;html=1;rotation=-45;" parent="1" vertex="1">
          <mxGeometry x="510" y="524.39" width="120" height="50" as="geometry" />
        </mxCell>
        <mxCell id="iCIqvXKnUE5XaOJZBTWL-43" value="" style="endArrow=none;html=1;rounded=0;entryX=0.5;entryY=1;entryDx=0;entryDy=0;exitX=0.5;exitY=0;exitDx=0;exitDy=0;" parent="1" source="iCIqvXKnUE5XaOJZBTWL-44" target="iCIqvXKnUE5XaOJZBTWL-37" edge="1">
          <mxGeometry width="50" height="50" relative="1" as="geometry">
            <mxPoint x="475.61" y="530" as="sourcePoint" />
            <mxPoint x="395.61" y="490" as="targetPoint" />
          </mxGeometry>
        </mxCell>
        <mxCell id="iCIqvXKnUE5XaOJZBTWL-44" value="Copy Right" style="ellipse;whiteSpace=wrap;html=1;rotation=0;" parent="1" vertex="1">
          <mxGeometry x="385.5" y="600" width="120" height="50" as="geometry" />
        </mxCell>
        <mxCell id="iCIqvXKnUE5XaOJZBTWL-45" value="" style="endArrow=none;html=1;rounded=0;entryX=1;entryY=1;entryDx=0;entryDy=0;exitX=0.5;exitY=0;exitDx=0;exitDy=0;" parent="1" source="iCIqvXKnUE5XaOJZBTWL-46" edge="1">
          <mxGeometry width="50" height="50" relative="1" as="geometry">
            <mxPoint x="440" y="530" as="sourcePoint" />
            <mxPoint x="360" y="490" as="targetPoint" />
          </mxGeometry>
        </mxCell>
        <mxCell id="iCIqvXKnUE5XaOJZBTWL-46" value="Album ID" style="ellipse;whiteSpace=wrap;html=1;rotation=45;" parent="1" vertex="1">
          <mxGeometry x="260" y="550" width="120" height="50" as="geometry" />
        </mxCell>
        <mxCell id="iCIqvXKnUE5XaOJZBTWL-59" value="Song" style="rounded=0;whiteSpace=wrap;html=1;" parent="1" vertex="1">
          <mxGeometry x="90" y="310" width="120" height="50" as="geometry" />
        </mxCell>
        <mxCell id="iCIqvXKnUE5XaOJZBTWL-60" value="" style="endArrow=none;html=1;rounded=0;entryX=0.5;entryY=1;entryDx=0;entryDy=0;exitX=0.5;exitY=0;exitDx=0;exitDy=0;" parent="1" source="iCIqvXKnUE5XaOJZBTWL-61" target="iCIqvXKnUE5XaOJZBTWL-59" edge="1">
          <mxGeometry width="50" height="50" relative="1" as="geometry">
            <mxPoint x="205.61" y="400" as="sourcePoint" />
            <mxPoint x="125.61000000000001" y="360" as="targetPoint" />
          </mxGeometry>
        </mxCell>
        <mxCell id="iCIqvXKnUE5XaOJZBTWL-61" value="Author" style="ellipse;whiteSpace=wrap;html=1;rotation=35;" parent="1" vertex="1">
          <mxGeometry x="-20" y="460" width="120" height="50" as="geometry" />
        </mxCell>
        <mxCell id="iCIqvXKnUE5XaOJZBTWL-62" value="" style="endArrow=none;html=1;rounded=0;entryX=1;entryY=1;entryDx=0;entryDy=0;exitX=0.5;exitY=0;exitDx=0;exitDy=0;" parent="1" source="iCIqvXKnUE5XaOJZBTWL-63" edge="1">
          <mxGeometry width="50" height="50" relative="1" as="geometry">
            <mxPoint x="170" y="400" as="sourcePoint" />
            <mxPoint x="90" y="360" as="targetPoint" />
          </mxGeometry>
        </mxCell>
        <mxCell id="iCIqvXKnUE5XaOJZBTWL-63" value="Title" style="ellipse;whiteSpace=wrap;html=1;rotation=0;" parent="1" vertex="1">
          <mxGeometry x="-100" y="235" width="120" height="50" as="geometry" />
        </mxCell>
        <mxCell id="iCIqvXKnUE5XaOJZBTWL-64" value="Has" style="rhombus;whiteSpace=wrap;html=1;" parent="1" vertex="1">
          <mxGeometry x="240" y="364.39" width="80" height="80" as="geometry" />
        </mxCell>
        <mxCell id="iCIqvXKnUE5XaOJZBTWL-65" value="" style="endArrow=none;html=1;rounded=0;entryX=0.5;entryY=0;entryDx=0;entryDy=0;exitX=1;exitY=0.5;exitDx=0;exitDy=0;shape=link;" parent="1" source="iCIqvXKnUE5XaOJZBTWL-59" target="iCIqvXKnUE5XaOJZBTWL-64" edge="1">
          <mxGeometry width="50" height="50" relative="1" as="geometry">
            <mxPoint x="300" y="440" as="sourcePoint" />
            <mxPoint x="350" y="390" as="targetPoint" />
          </mxGeometry>
        </mxCell>
        <mxCell id="iCIqvXKnUE5XaOJZBTWL-66" value="" style="endArrow=none;html=1;rounded=0;exitX=1;exitY=1;exitDx=0;exitDy=0;entryX=0;entryY=0;entryDx=0;entryDy=0;" parent="1" source="iCIqvXKnUE5XaOJZBTWL-64" target="iCIqvXKnUE5XaOJZBTWL-37" edge="1">
          <mxGeometry width="50" height="50" relative="1" as="geometry">
            <mxPoint x="300" y="440" as="sourcePoint" />
            <mxPoint x="350" y="390" as="targetPoint" />
          </mxGeometry>
        </mxCell>
        <mxCell id="iCIqvXKnUE5XaOJZBTWL-67" value="Perform" style="rhombus;whiteSpace=wrap;html=1;" parent="1" vertex="1">
          <mxGeometry x="200" y="205" width="80" height="80" as="geometry" />
        </mxCell>
        <mxCell id="iCIqvXKnUE5XaOJZBTWL-69" value="" style="endArrow=none;html=1;rounded=0;exitX=1;exitY=0.5;exitDx=0;exitDy=0;entryX=0;entryY=0.5;entryDx=0;entryDy=0;shape=link;" parent="1" source="iCIqvXKnUE5XaOJZBTWL-67" target="iCIqvXKnUE5XaOJZBTWL-1" edge="1">
          <mxGeometry width="50" height="50" relative="1" as="geometry">
            <mxPoint x="260" y="280.61" as="sourcePoint" />
            <mxPoint x="320" y="280.61" as="targetPoint" />
          </mxGeometry>
        </mxCell>
        <mxCell id="iCIqvXKnUE5XaOJZBTWL-70" value="" style="group" parent="1" vertex="1" connectable="0">
          <mxGeometry x="440" y="-20" width="105" height="50" as="geometry" />
        </mxCell>
        <mxCell id="iCIqvXKnUE5XaOJZBTWL-10" value="" style="endArrow=none;html=1;rounded=0;entryX=0.5;entryY=0;entryDx=0;entryDy=0;" parent="iCIqvXKnUE5XaOJZBTWL-70" target="iCIqvXKnUE5XaOJZBTWL-4" edge="1">
          <mxGeometry width="50" height="50" relative="1" as="geometry">
            <mxPoint x="40" y="50" as="sourcePoint" />
            <mxPoint y="330" as="targetPoint" />
          </mxGeometry>
        </mxCell>
        <mxCell id="iCIqvXKnUE5XaOJZBTWL-12" value="City" style="ellipse;whiteSpace=wrap;html=1;" parent="iCIqvXKnUE5XaOJZBTWL-70" vertex="1">
          <mxGeometry width="105" height="50" as="geometry" />
        </mxCell>
        <mxCell id="iCIqvXKnUE5XaOJZBTWL-71" value="" style="group" parent="1" vertex="1" connectable="0">
          <mxGeometry x="545.4835151840388" y="96.74518548259529" width="59.03296963192247" height="96.50962903480944" as="geometry" />
        </mxCell>
        <mxCell id="iCIqvXKnUE5XaOJZBTWL-14" value="" style="endArrow=none;html=1;rounded=0;entryX=1;entryY=0;entryDx=0;entryDy=0;" parent="iCIqvXKnUE5XaOJZBTWL-71" target="iCIqvXKnUE5XaOJZBTWL-1" edge="1">
          <mxGeometry width="50" height="50" relative="1" as="geometry">
            <mxPoint x="14.516484815961235" y="53.25481451740471" as="sourcePoint" />
            <mxPoint x="-95.48351518403877" y="13.25481451740471" as="targetPoint" />
          </mxGeometry>
        </mxCell>
        <mxCell id="iCIqvXKnUE5XaOJZBTWL-15" value="Phone Number&lt;br&gt;" style="ellipse;whiteSpace=wrap;html=1;rotation=45;" parent="iCIqvXKnUE5XaOJZBTWL-71" vertex="1">
          <mxGeometry x="-15.483515184038765" y="29.75481451740471" width="90" height="37" as="geometry" />
        </mxCell>
        <mxCell id="iCIqvXKnUE5XaOJZBTWL-72" value="M" style="text;strokeColor=none;align=center;fillColor=none;html=1;verticalAlign=middle;whiteSpace=wrap;rounded=0;" parent="1" vertex="1">
          <mxGeometry x="410" y="410" width="60" height="30" as="geometry" />
        </mxCell>
        <mxCell id="iCIqvXKnUE5XaOJZBTWL-73" value="1" style="text;strokeColor=none;align=center;fillColor=none;html=1;verticalAlign=middle;whiteSpace=wrap;rounded=0;" parent="1" vertex="1">
          <mxGeometry x="370" y="230" width="60" height="30" as="geometry" />
        </mxCell>
        <mxCell id="iCIqvXKnUE5XaOJZBTWL-74" value="1" style="text;strokeColor=none;align=center;fillColor=none;html=1;verticalAlign=middle;whiteSpace=wrap;rounded=0;" parent="1" vertex="1">
          <mxGeometry x="310" y="440" width="60" height="30" as="geometry" />
        </mxCell>
        <mxCell id="iCIqvXKnUE5XaOJZBTWL-75" value="M" style="text;strokeColor=none;align=center;fillColor=none;html=1;verticalAlign=middle;whiteSpace=wrap;rounded=0;" parent="1" vertex="1">
          <mxGeometry x="190" y="340" width="60" height="30" as="geometry" />
        </mxCell>
        <mxCell id="iCIqvXKnUE5XaOJZBTWL-76" value="M" style="text;strokeColor=none;align=center;fillColor=none;html=1;verticalAlign=middle;whiteSpace=wrap;rounded=0;" parent="1" vertex="1">
          <mxGeometry x="310" y="175" width="60" height="30" as="geometry" />
        </mxCell>
        <mxCell id="iCIqvXKnUE5XaOJZBTWL-77" value="M" style="text;strokeColor=none;align=center;fillColor=none;html=1;verticalAlign=middle;whiteSpace=wrap;rounded=0;" parent="1" vertex="1">
          <mxGeometry x="110" y="270" width="60" height="30" as="geometry" />
        </mxCell>
        <mxCell id="iCIqvXKnUE5XaOJZBTWL-78" value="" style="endArrow=none;html=1;rounded=0;entryX=0;entryY=0.5;entryDx=0;entryDy=0;shape=link;" parent="1" edge="1">
          <mxGeometry width="50" height="50" relative="1" as="geometry">
            <mxPoint x="170" y="310" as="sourcePoint" />
            <mxPoint x="210" y="255" as="targetPoint" />
          </mxGeometry>
        </mxCell>
        <mxCell id="hwjeusZD4FVf0Z8DXrwc-10" value="" style="line;strokeWidth=2;html=1;rotation=-45;" vertex="1" parent="1">
          <mxGeometry x="830" y="420" width="79.39" height="10" as="geometry" />
        </mxCell>
        <mxCell id="hwjeusZD4FVf0Z8DXrwc-11" value="" style="line;strokeWidth=2;html=1;rotation=-45;" vertex="1" parent="1">
          <mxGeometry x="264.15" y="140" width="79.39" height="10" as="geometry" />
        </mxCell>
        <mxCell id="hwjeusZD4FVf0Z8DXrwc-12" value="" style="line;strokeWidth=2;html=1;rotation=-45;" vertex="1" parent="1">
          <mxGeometry x="540.61" y="550" width="79.39" height="10" as="geometry" />
        </mxCell>
        <mxCell id="hwjeusZD4FVf0Z8DXrwc-13" value="" style="line;strokeWidth=2;html=1;rotation=0;" vertex="1" parent="1">
          <mxGeometry x="-79.69" y="265" width="79.39" height="10" as="geometry" />
        </mxCell>
      </root>
    </mxGraphModel>
  </diagram>
</mxfile>
